<svg xmlns="http://www.w3.org/2000/svg" width="800" height="450" viewBox="0 0 800 450">
  <defs>
    <linearGradient id="g" x1="0" y1="0" x2="1" y2="1">
      <stop offset="0" stop-color="#ff7aa8"/>
      <stop offset="1" stop-color="#7a9cff"/>
    </linearGradient>
  </defs>
  <rect width="800" height="450" fill="#fff1f5"/>
  <rect x="20" y="20" width="760" height="44" rx="10" fill="#ffe4ed"/>
  <circle cx="40" cy="42" r="6" fill="#ff5e7d"/>
  <circle cx="58" cy="42" r="6" fill="#ffd166"/>
  <circle cx="76" cy="42" r="6" fill="#61d097"/>

  <rect x="20" y="80" width="760" height="320" rx="12" fill="#ffffff" stroke="#ffd6e1"/>
  <rect x="40" y="100" width="240" height="120" rx="8" fill="url(#g)"/>
  <rect x="300" y="100" width="460" height="20" rx="10" fill="#ffe4ed"/>
  <rect x="300" y="128" width="380" height="14" rx="7" fill="#ffe4ed"/>
  <rect x="300" y="150" width="300" height="14" rx="7" fill="#ffe4ed"/>

  <rect x="40" y="240" width="220" height="140" rx="12" fill="#fff7f9" stroke="#ffe4ed"/>
  <rect x="270" y="240" width="220" height="140" rx="12" fill="#fff7f9" stroke="#ffe4ed"/>
  <rect x="500" y="240" width="280" height="140" rx="12" fill="#fff7f9" stroke="#ffe4ed"/>
  <rect x="52" y="252" width="196" height="96" rx="8" fill="#ffe4ed"/>
  <rect x="282" y="252" width="196" height="96" rx="8" fill="#ffe4ed"/>
  <rect x="512" y="252" width="256" height="96" rx="8" fill="#ffe4ed"/>
</svg>