<svg xmlns="http://www.w3.org/2000/svg" width="800" height="450" viewBox="0 0 800 450">
  <defs>
    <linearGradient id="g" x1="0" y1="0" x2="1" y2="1">
      <stop offset="0" stop-color="#00c2a8"/>
      <stop offset="1" stop-color="#0077ff"/>
    </linearGradient>
  </defs>
  <rect width="800" height="450" fill="#eef9f6"/>
  <rect x="20" y="20" width="760" height="44" rx="10" fill="#d7f1ea"/>
  <circle cx="40" cy="42" r="6" fill="#f43f5e"/>
  <circle cx="58" cy="42" r="6" fill="#f59e0b"/>
  <circle cx="76" cy="42" r="6" fill="#10b981"/>

  <rect x="20" y="80" width="760" height="300" rx="12" fill="#ffffff" stroke="#cfe9e2"/>
  <rect x="40" y="100" width="720" height="120" rx="8" fill="url(#g)"/>
  <rect x="40" y="232" width="160" height="16" rx="8" fill="#e6f5f1"/>

  <rect x="40" y="260" width="160" height="160" rx="12" fill="#f7fbfa" stroke="#e6f5f1"/>
  <rect x="50" y="270" width="140" height="90" rx="8" fill="#d7f1ea"/>
  <rect x="50" y="368" width="100" height="12" rx="6" fill="#d7f1ea"/>
  <rect x="50" y="386" width="60" height="12" rx="6" fill="#d7f1ea"/>

  <rect x="220" y="260" width="160" height="160" rx="12" fill="#f7fbfa" stroke="#e6f5f1"/>
  <rect x="230" y="270" width="140" height="90" rx="8" fill="#d7f1ea"/>
  <rect x="230" y="368" width="100" height="12" rx="6" fill="#d7f1ea"/>
  <rect x="230" y="386" width="60" height="12" rx="6" fill="#d7f1ea"/>

  <rect x="400" y="260" width="160" height="160" rx="12" fill="#f7fbfa" stroke="#e6f5f1"/>
  <rect x="410" y="270" width="140" height="90" rx="8" fill="#d7f1ea"/>
  <rect x="410" y="368" width="100" height="12" rx="6" fill="#d7f1ea"/>
  <rect x="410" y="386" width="60" height="12" rx="6" fill="#d7f1ea"/>

  <rect x="580" y="260" width="200" height="160" rx="12" fill="#f7fbfa" stroke="#e6f5f1"/>
  <rect x="590" y="270" width="180" height="90" rx="8" fill="#d7f1ea"/>
  <rect x="590" y="368" width="140" height="12" rx="6" fill="#d7f1ea"/>
  <rect x="590" y="386" width="100" height="12" rx="6" fill="#d7f1ea"/>
</svg>