<svg xmlns="http://www.w3.org/2000/svg" width="800" height="450" viewBox="0 0 800 450">
  <defs>
    <linearGradient id="g" x1="0" y1="0" x2="1" y2="1">
      <stop offset="0" stop-color="#00f5ff"/>
      <stop offset="1" stop-color="#7a5cff"/>
    </linearGradient>
  </defs>
  <rect width="800" height="450" fill="#eff7ff"/>
  <rect x="20" y="20" width="760" height="44" rx="10" fill="#dde9ff"/>
  <circle cx="40" cy="42" r="6" fill="#ff4d67"/>
  <circle cx="58" cy="42" r="6" fill="#f6c453"/>
  <circle cx="76" cy="42" r="6" fill="#36d399"/>

  <rect x="20" y="80" width="760" height="320" rx="12" fill="#ffffff" stroke="#d3e3ff"/>
  <rect x="40" y="100" width="360" height="150" rx="12" fill="url(#g)"/>
  <rect x="420" y="100" width="340" height="22" rx="11" fill="#e8f0ff"/>
  <rect x="420" y="132" width="300" height="16" rx="8" fill="#e8f0ff"/>
  <rect x="420" y="154" width="260" height="16" rx="8" fill="#e8f0ff"/>

  <rect x="40" y="270" width="720" height="110" rx="12" fill="#f7fbff" stroke="#e8f0ff"/>
  <rect x="52" y="282" width="160" height="80" rx="8" fill="#e8f0ff"/>
  <rect x="222" y="282" width="160" height="80" rx="8" fill="#e8f0ff"/>
  <rect x="392" y="282" width="160" height="80" rx="8" fill="#e8f0ff"/>
  <rect x="562" y="282" width="186" height="80" rx="8" fill="#e8f0ff"/>
</svg>