<svg xmlns="http://www.w3.org/2000/svg" width="800" height="450" viewBox="0 0 800 450">
  <defs>
    <linearGradient id="g" x1="0" y1="0" x2="1" y2="1">
      <stop offset="0" stop-color="#ffb347"/>
      <stop offset="1" stop-color="#ffcc33"/>
    </linearGradient>
  </defs>
  <rect width="800" height="450" fill="#fff8ec"/>
  <rect x="20" y="20" width="760" height="44" rx="10" fill="#ffe9c7"/>
  <circle cx="40" cy="42" r="6" fill="#ff6b6b"/>
  <circle cx="58" cy="42" r="6" fill="#ffd166"/>
  <circle cx="76" cy="42" r="6" fill="#2ecc71"/>

  <rect x="20" y="80" width="760" height="320" rx="12" fill="#ffffff" stroke="#ffe0b2"/>
  <rect x="40" y="100" width="720" height="120" rx="8" fill="url(#g)"/>
  <rect x="40" y="232" width="160" height="18" rx="9" fill="#ffe9c7"/>
  <rect x="220" y="232" width="160" height="18" rx="9" fill="#ffe9c7"/>
  <rect x="400" y="232" width="160" height="18" rx="9" fill="#ffe9c7"/>
  <rect x="580" y="232" width="160" height="18" rx="9" fill="#ffe9c7"/>

  <rect x="40" y="260" width="350" height="140" rx="12" fill="#fffdf6" stroke="#ffe9c7"/>
  <rect x="410" y="260" width="350" height="140" rx="12" fill="#fffdf6" stroke="#ffe9c7"/>
  <rect x="52" y="272" width="150" height="96" rx="8" fill="#ffe9c7"/>
  <rect x="210" y="272" width="168" height="14" rx="7" fill="#ffe9c7"/>
  <rect x="210" y="292" width="140" height="12" rx="6" fill="#ffe9c7"/>
  <rect x="210" y="312" width="100" height="12" rx="6" fill="#ffe9c7"/>

  <rect x="422" y="272" width="150" height="96" rx="8" fill="#ffe9c7"/>
  <rect x="580" y="272" width="168" height="14" rx="7" fill="#ffe9c7"/>
  <rect x="580" y="292" width="140" height="12" rx="6" fill="#ffe9c7"/>
  <rect x="580" y="312" width="100" height="12" rx="6" fill="#ffe9c7"/>
</svg>