<svg xmlns="http://www.w3.org/2000/svg" width="800" height="450" viewBox="0 0 800 450">
  <defs>
    <linearGradient id="g" x1="0" y1="0" x2="1" y2="1">
      <stop offset="0" stop-color="#6b5bff"/>
      <stop offset="1" stop-color="#32d5ff"/>
    </linearGradient>
  </defs>
  <rect width="800" height="450" fill="#eef3ff"/>
  <rect x="20" y="20" width="760" height="44" rx="10" fill="#dfe7ff"/>
  <circle cx="40" cy="42" r="6" fill="#ff6b81"/>
  <circle cx="58" cy="42" r="6" fill="#ffc061"/>
  <circle cx="76" cy="42" r="6" fill="#6bff95"/>
  <rect x="120" y="32" width="120" height="20" rx="8" fill="#cbd6ff"/>
  <rect x="260" y="32" width="90" height="20" rx="8" fill="#cbd6ff"/>
  <rect x="360" y="32" width="90" height="20" rx="8" fill="#cbd6ff"/>

  <rect x="20" y="80" width="240" height="320" rx="12" fill="#ffffff" stroke="#d3dcff"/>
  <rect x="40" y="100" width="200" height="120" rx="8" fill="url(#g)"/>
  <rect x="40" y="230" width="160" height="12" rx="6" fill="#e1e7ff"/>
  <rect x="40" y="250" width="120" height="12" rx="6" fill="#e1e7ff"/>
  <rect x="40" y="290" width="180" height="60" rx="8" fill="#f5f7ff" stroke="#e1e7ff"/>

  <rect x="280" y="80" width="500" height="150" rx="12" fill="#ffffff" stroke="#d3dcff"/>
  <rect x="300" y="100" width="220" height="110" rx="8" fill="url(#g)"/>
  <rect x="540" y="100" width="220" height="22" rx="8" fill="#e1e7ff"/>
  <rect x="540" y="128" width="160" height="14" rx="7" fill="#e1e7ff"/>
  <rect x="540" y="150" width="120" height="14" rx="7" fill="#e1e7ff"/>

  <rect x="280" y="240" width="500" height="160" rx="12" fill="#ffffff" stroke="#d3dcff"/>
  <rect x="300" y="260" width="120" height="20" rx="10" fill="#cbd6ff"/>
  <rect x="440" y="260" width="120" height="20" rx="10" fill="#cbd6ff"/>
  <rect x="580" y="260" width="120" height="20" rx="10" fill="#cbd6ff"/>
  <rect x="300" y="300" width="140" height="80" rx="12" fill="#f5f7ff" stroke="#e1e7ff"/>
  <rect x="460" y="300" width="140" height="80" rx="12" fill="#f5f7ff" stroke="#e1e7ff"/>
  <rect x="620" y="300" width="140" height="80" rx="12" fill="#f5f7ff" stroke="#e1e7ff"/>
</svg>