<svg xmlns="http://www.w3.org/2000/svg" width="1600" height="900" viewBox="0 0 1600 900">
  <defs>
    <linearGradient id="bg" x1="0" y1="0" x2="0" y2="1">
      <stop offset="0" stop-color="#f8fafc"/>
      <stop offset="1" stop-color="#e2e8f0"/>
    </linearGradient>
  </defs>
  <rect width="1600" height="900" fill="url(#bg)"/>
  <rect x="220" y="120" width="520" height="660" rx="40" fill="#fff" stroke="#e5e7eb"/>
  <ellipse cx="480" cy="340" rx="160" ry="200" fill="#fef3c7"/>
  <path d="M340,300 C420,140 640,140 720,300 C680,360 660,420 640,520 C580,600 380,580 360,500 C340,420 320,360 340,300 Z" fill="#f5d0fe"/>
  <rect x="780" y="160" width="600" height="200" rx="20" fill="#fff" stroke="#e5e7eb"/>
  <rect x="800" y="190" width="560" height="36" rx="10" fill="#111827"/>
  <rect x="800" y="236" width="420" height="24" rx="8" fill="#6b7280"/>
  <rect x="800" y="270" width="260" height="24" rx="8" fill="#9ca3af"/>
  <rect x="780" y="410" width="600" height="370" rx="20" fill="#fff" stroke="#e5e7eb"/>
  <rect x="800" y="440" width="400" height="34" rx="10" fill="#f97316"/>
  <rect x="800" y="486" width="540" height="24" rx="8" fill="#9ca3af" opacity="0.5"/>
  <rect x="800" y="520" width="540" height="24" rx="8" fill="#9ca3af" opacity="0.4"/>
  <rect x="800" y="554" width="540" height="24" rx="8" fill="#9ca3af" opacity="0.3"/>
</svg>